<?xml version="1.0" encoding="utf-8"?>
<!-- Svg Vector Icons : http://www.onlinewebfonts.com/icon -->
<!DOCTYPE svg PUBLIC "-//W3C//DTD SVG 1.1//EN" "http://www.w3.org/Graphics/SVG/1.1/DTD/svg11.dtd">
<svg version="1.1" xmlns="http://www.w3.org/2000/svg" xmlns:xlink="http://www.w3.org/1999/xlink" x="0px" y="0px" viewBox="0 0 256 256" enable-background="new 0 0 256 256" xml:space="preserve">
<metadata> Svg Vector Icons : http://www.onlinewebfonts.com/icon </metadata>
<g><g><path fill="#000000" d="M24.4,141.6l87.5,45.1l15.6-45.1L40,98.9L24.4,141.6z M129.5,141.6l14.8,44.7l90.7-45.1l-17.6-42.3L129.5,141.6z M10,62.9l30.1,35.9l87.5-45.5L99.1,16.2L10,62.9z M246,63.7l-87.2-47.5l-29.7,37.1l88.3,45.5L246,63.7z M34.9,152.9l-0.3,43.3l92.3,43.7v-81.4l-13.2,35.1L34.9,152.9z M130.1,158.4v81.4l92-43.7v-43l-79.8,40.5L130.1,158.4z"/></g></g>
</svg>